<svg xmlns="http://www.w3.org/2000/svg" width="48.925" height="37.794" viewBox="0 0 48.925 37.794">
  <g id="fast" transform="translate(0 -58.245)">
    <g id="Group_2923" data-name="Group 2923" transform="translate(2.646 69.975)">
      <g id="Group_2922" data-name="Group 2922" transform="translate(0 0)">
        <rect id="Rectangle_113" data-name="Rectangle 113" width="5.619" height="2.867" fill="#fff"/>
      </g>
    </g>
    <g id="Group_2925" data-name="Group 2925" transform="translate(2.646 81.442)">
      <g id="Group_2924" data-name="Group 2924" transform="translate(0 0)">
        <rect id="Rectangle_114" data-name="Rectangle 114" width="5.619" height="2.867" fill="#fff"/>
      </g>
    </g>
    <g id="Group_2927" data-name="Group 2927" transform="translate(0 75.709)">
      <g id="Group_2926" data-name="Group 2926" transform="translate(0 0)">
        <rect id="Rectangle_115" data-name="Rectangle 115" width="8.265" height="2.867" fill="#fff"/>
      </g>
    </g>
    <g id="Group_2929" data-name="Group 2929" transform="translate(11.131 58.245)">
      <g id="Group_2928" data-name="Group 2928" transform="translate(0 0)">
        <path id="Path_4314" data-name="Path 4314" d="M135.386,58.245a18.9,18.9,0,1,0,18.9,18.9A18.918,18.918,0,0,0,135.386,58.245Zm0,34.927a16.03,16.03,0,1,1,16.03-16.03A16.048,16.048,0,0,1,135.386,93.172Z" transform="translate(-116.489 -58.245)" fill="#fff"/>
      </g>
    </g>
    <g id="Group_2931" data-name="Group 2931" transform="translate(28.087 68.595)">
      <g id="Group_2930" data-name="Group 2930">
        <path id="Path_4315" data-name="Path 4315" d="M296.8,175.816v-9.259H293.93v10.775l7.387,5.034L302.932,180Z" transform="translate(-293.93 -166.557)" fill="#fff"/>
      </g>
    </g>
  </g>
</svg>
