<svg id="placeholder" xmlns="http://www.w3.org/2000/svg" width="39.921" height="39.921" viewBox="0 0 39.921 39.921">
  <path id="Path_4331" data-name="Path 4331" d="M27.657,21.315A4.657,4.657,0,1,0,23,16.657,4.663,4.663,0,0,0,27.657,21.315Zm0-7.984a3.327,3.327,0,1,1-3.327,3.327A3.331,3.331,0,0,1,27.657,13.331Z" transform="translate(-7.697 -4.016)" fill="#fff"/>
  <path id="Path_4332" data-name="Path 4332" d="M23.405,36.432,33.612,21.69c3.828-5.1,3.275-13.493-1.185-17.952a12.758,12.758,0,0,0-18.044,0C9.923,8.2,9.37,16.586,13.183,21.67ZM15.324,4.678a11.429,11.429,0,0,1,16.163,0c4.025,4.025,4.521,11.6,1.047,16.234L23.405,34.094l-9.143-13.2C10.8,16.28,11.3,8.7,15.324,4.678Z" transform="translate(-3.563)" fill="#fff"/>
  <path id="Path_4333" data-name="Path 4333" d="M28.022,43a.665.665,0,0,0-.156,1.321c7,.824,10.723,3.043,10.723,4.329,0,1.806-7.087,4.325-18.63,4.325s-18.63-2.519-18.63-4.325c0-1.286,3.727-3.506,10.723-4.329A.665.665,0,1,0,11.9,43C4.893,43.829,0,46.153,0,48.655c0,2.81,6.856,5.655,19.96,5.655s19.96-2.845,19.96-5.655C39.921,46.153,35.028,43.829,28.022,43Z" transform="translate(0 -14.39)" fill="#fff"/>
</svg>
