<svg id="scissors" xmlns="http://www.w3.org/2000/svg" width="38.694" height="44.396" viewBox="0 0 38.694 44.396">
  <path id="Path_4316" data-name="Path 4316" d="M148.466,210.108c-.092.008-.185.014-.28.014a2.929,2.929,0,0,1-1.949-.739l-5.229,16.233a6.393,6.393,0,0,1,.716,5.424Zm0,0" transform="translate(-128.825 -191.227)" fill="#fff"/>
  <path id="Path_4317" data-name="Path 4317" d="M142.8,224.954l4.8-14.9a2.933,2.933,0,0,1-1.362-.68l-5.229,16.233a6.392,6.392,0,0,1,.716,5.424l1.406-4.366c-.073-.178-.153-.354-.242-.526a1.566,1.566,0,0,1-.088-1.19Zm0,0" transform="translate(-128.825 -191.224)" fill="#fff"/>
  <path id="Path_4318" data-name="Path 4318" d="M224.919.192a.208.208,0,0,0-.406-.048l-4.15,12.884a2.966,2.966,0,0,1,.3-.015,2.929,2.929,0,0,1,1.935.727l1.134-3.522A26.25,26.25,0,0,0,224.919.192Zm0,0" transform="translate(-201.299 0)" fill="#fff"/>
  <path id="Path_4319" data-name="Path 4319" d="M.818,364.143a6.608,6.608,0,1,1,4.264,8.316,6.616,6.616,0,0,1-4.264-8.316Zm2.231.718a4.265,4.265,0,1,0,5.367-2.752,4.27,4.27,0,0,0-5.367,2.752Zm0,0" transform="translate(-0.499 -328.382)" fill="#fff"/>
  <path id="Path_4320" data-name="Path 4320" d="M177.841,13.013c.09,0,.18,0,.268.013L173.96.144a.209.209,0,0,0-.406.048,26.251,26.251,0,0,0,1.19,10.027l1.14,3.541a2.929,2.929,0,0,1,1.958-.747Zm0,0" transform="translate(-158.48 0.001)" fill="#fff"/>
  <path id="Path_4321" data-name="Path 4321" d="M224.956,3.553a26.188,26.188,0,0,0-.037-3.361.208.208,0,0,0-.406-.048l-4.15,12.884a2.876,2.876,0,0,1,.3-.015,2.929,2.929,0,0,1,1.935.727l.214-.664a2.946,2.946,0,0,0-.608-.064h0a.209.209,0,0,1-.2-.272Zm0,0" transform="translate(-201.299 0)" fill="#fff"/>
  <path id="Path_4322" data-name="Path 4322" d="M176.284,10.219a26.248,26.248,0,0,1-1.226-6.666L173.96.144a.209.209,0,0,0-.406.048,26.251,26.251,0,0,0,1.19,10.027l1.141,3.541a2.933,2.933,0,0,1,1.323-.677Zm0,0" transform="translate(-158.48 0.001)" fill="#fff"/>
  <path id="Path_4323" data-name="Path 4323" d="M227.674,225.8l-5.216-16.2a2.928,2.928,0,0,1-1.926.72,3.01,3.01,0,0,1-.309-.016l6.743,20.934a6.433,6.433,0,0,1,.709-5.443Zm0,0" transform="translate(-201.17 -191.431)" fill="#fff"/>
  <path id="Path_4324" data-name="Path 4324" d="M227.1,226.949l-5.262-16.337a.217.217,0,0,1,.21-.283h0a2.946,2.946,0,0,0,.618-.066l-.21-.653a2.929,2.929,0,0,1-1.926.719,3.009,3.009,0,0,1-.309-.016l6.743,20.934a6.337,6.337,0,0,1,.134-4.3Zm0,0" transform="translate(-201.17 -191.434)" fill="#fff"/>
  <path id="Path_4325" data-name="Path 4325" d="M192.348,149.566a2.985,2.985,0,1,0,2.985,2.985A2.988,2.988,0,0,0,192.348,149.566Zm0,0" transform="translate(-172.987 -136.597)" fill="#fff"/>
  <path id="Path_4326" data-name="Path 4326" d="M192.49,152.551a2.985,2.985,0,0,1,1.422-2.542,2.985,2.985,0,1,0,0,5.083A2.985,2.985,0,0,1,192.49,152.551Zm0,0" transform="translate(-172.987 -136.597)" fill="#fff"/>
  <path id="Path_4327" data-name="Path 4327" d="M216.737,177.6a.67.67,0,1,1,.67-.67A.671.671,0,0,1,216.737,177.6Zm0,0" transform="translate(-197.375 -160.98)" fill="#fff"/>
  <path id="Path_4328" data-name="Path 4328" d="M302.944,372.459a6.608,6.608,0,1,1,4.264-8.316A6.616,6.616,0,0,1,302.944,372.459Zm-3.334-10.35a4.265,4.265,0,1,0,5.367,2.752A4.27,4.27,0,0,0,299.61,362.109Zm0,0" transform="translate(-268.832 -328.382)" fill="#fff"/>
  <g id="Group_2932" data-name="Group 2932" transform="translate(0 31.178)">
    <path id="Path_4329" data-name="Path 4329" d="M8.082,372.479a6.584,6.584,0,0,1-3.714-3.023,4.26,4.26,0,0,1-.011-6.523,6.629,6.629,0,0,1,4.252-3.178,6.607,6.607,0,1,0,0,12.868c-.175-.041-.351-.088-.525-.144Zm0,0" transform="translate(-0.499 -359.581)" fill="#fff"/>
    <path id="Path_4330" data-name="Path 4330" d="M298.166,369.431a4.26,4.26,0,0,1,.011-6.523,6.583,6.583,0,0,1,3.714-3.023c.174-.056.35-.1.525-.144a6.607,6.607,0,1,0,0,12.868A6.628,6.628,0,0,1,298.166,369.431Zm0,0" transform="translate(-268.832 -359.566)" fill="#fff"/>
  </g>
</svg>
