<svg xmlns="http://www.w3.org/2000/svg" width="37.369" height="38.989" viewBox="0 0 37.369 38.989">
  <path id="consultation" d="M24.643,0H21.236A17,17,0,0,0,4.255,16.981V26.15a.951.951,0,0,0,.952.952H6.635v.67a.951.951,0,0,0,.952.952H9.313a3.1,3.1,0,0,0,3.1-3.1V18.191a3.1,3.1,0,0,0-3.1-3.1H7.586a.951.951,0,0,0-.952.952v.67h-.47A15.093,15.093,0,0,1,21.236,1.9h3.407A15.093,15.093,0,0,1,39.714,16.717h-.47v-.67a.951.951,0,0,0-.952-.952H36.566a3.1,3.1,0,0,0-3.1,3.1v7.436a3.1,3.1,0,0,0,3.1,3.1h1.727a.948.948,0,0,0,.674-.281V30.5a5,5,0,0,1-5,5H28.314A2.548,2.548,0,0,0,25.955,33.9H23.386a2.545,2.545,0,1,0,0,5.091h2.569a2.548,2.548,0,0,0,2.359-1.594h5.657a6.906,6.906,0,0,0,6.9-6.9V27.081a.951.951,0,0,0,.754-.93V16.981A17,17,0,0,0,24.643,0Z" transform="translate(-4.255)" fill="#fff"/>
</svg>
