<svg xmlns="http://www.w3.org/2000/svg" width="56.661" height="58.734" viewBox="0 0 56.661 58.734">
  <g id="Free-Pack_phone-actions-ring" data-name="Free-Pack / phone-actions-ring" transform="translate(-87.242 -347.25)">
    <g id="Group_63" transform="translate(-8 -5)">
      <g id="Regular_63">
        <path id="Shape_309" d="M126.3,407.671l.025.015a11.442,11.442,0,0,0,14.239-1.561l1.6-1.6a3.812,3.812,0,0,0,0-5.393l-6.743-6.743a3.812,3.812,0,0,0-5.393,0h0a3.812,3.812,0,0,1-5.4,0L113.84,381.6a3.812,3.812,0,0,1,0-5.393h0a3.812,3.812,0,0,0,0-5.4l-6.743-6.741a3.812,3.812,0,0,0-5.393,0l-1.6,1.6A11.442,11.442,0,0,0,98.54,379.91l.015.025A103.269,103.269,0,0,0,126.3,407.671Z" fill="none" stroke="#fff" stroke-linecap="round" stroke-linejoin="round" stroke-width="3" fill-rule="evenodd"/>
        <g id="Group_366" data-name="Group 366" transform="translate(-4 -4)">
          <path id="Shape_310" d="M107.249,366.25A15.656,15.656,0,0,1,122.9,381.9" transform="translate(18 6)" fill="none" stroke="#fff" stroke-linecap="round" stroke-linejoin="round" stroke-width="3"/>
          <path id="Shape_311" d="M107.249,362.5a19.4,19.4,0,0,1,19.4,19.4" transform="translate(21 2)" fill="none" stroke="#fff" stroke-linecap="round" stroke-linejoin="round" stroke-width="3"/>
          <path id="Shape_312" d="M107.249,358.75A23.155,23.155,0,0,1,130.4,381.9" transform="translate(24 -1)" fill="none" stroke="#fff" stroke-linecap="round" stroke-linejoin="round" stroke-width="3"/>
        </g>
      </g>
    </g>
  </g>
</svg>
