<svg xmlns="http://www.w3.org/2000/svg" width="51.001" height="43" viewBox="0 0 51.001 43">
  <g id="mail_outline" transform="translate(-610.162 -1260.162)">
    <rect id="Path" width="43" height="43" transform="translate(610.162 1260.162)" fill="rgba(0,0,0,0)"/>
    <path id="Icon" d="M45.1,35H3.9A4.163,4.163,0,0,1,0,30.625L.02,4.376A4.155,4.155,0,0,1,3.9,0H45.1A4.163,4.163,0,0,1,49,4.376V30.625A4.163,4.163,0,0,1,45.1,35ZM3.9,8.751V30.625H45.1V8.751L24.5,19.688Zm0-4.375h0L24.5,15.313,44.1,4.376H3.9Z" transform="translate(612.162 1264.162)" fill="#fff"/>
  </g>
</svg>
