<svg xmlns="http://www.w3.org/2000/svg" width="24" height="24" viewBox="0 0 24 24">
  <g id="settings_phone" transform="translate(-406 -462)">
    <rect id="Path" width="24" height="24" transform="translate(406 462)" fill="rgba(0,0,0,0)"/>
    <path id="Icon" d="M426,483a17,17,0,0,1-17-17,1,1,0,0,1,1-1h3.5a1,1,0,0,1,1,1,11.36,11.36,0,0,0,.57,3.57.984.984,0,0,1-.25,1.01l-2.2,2.21a15.151,15.151,0,0,0,6.59,6.58l2.2-2.2a1.034,1.034,0,0,1,.71-.291,1.137,1.137,0,0,1,.31.05,11.357,11.357,0,0,0,3.569.57,1,1,0,0,1,1,1V482A1,1,0,0,1,426,483Zm-3.6-3.99h0l-1.2,1.2a14.908,14.908,0,0,0,3.8.76v-1.51a12.8,12.8,0,0,1-2.6-.45ZM411.03,467h0a15.05,15.05,0,0,0,.76,3.8l1.2-1.21a13.224,13.224,0,0,1-.46-2.59Z" fill="#252c79"/>
  </g>
</svg>
