<svg xmlns="http://www.w3.org/2000/svg" width="73.191" height="75.959" viewBox="0 0 73.191 75.959">
  <g id="surgery" transform="translate(-9.326 -8.999)">
    <g id="Group_14" data-name="Group 14" transform="translate(9.326 8.999)">
      <g id="Group_13" data-name="Group 13" transform="translate(0 0)">
        <circle id="Ellipse_8" data-name="Ellipse 8" cx="1.097" cy="1.097" r="1.097" transform="translate(3.878 9.971)" fill="#fff"/>
        <path id="Path_1" data-name="Path 1" d="M202.294,347.505v-3.06a1.113,1.113,0,0,0-2.225,0v3.06a1.113,1.113,0,0,0,2.225,0Z" transform="translate(-171.771 -292.397)" fill="#fff"/>
        <circle id="Ellipse_9" data-name="Ellipse 9" cx="1.097" cy="1.097" r="1.097" transform="translate(67.119 9.971)" fill="#fff"/>
        <path id="Path_2" data-name="Path 2" d="M304.816,6.117l-2.911-4.682a3.039,3.039,0,1,0-5.162,3.208l2.91,4.681a4.972,4.972,0,0,0-.314,1.75c0,.08,0,.159.007.238l-8.214,7.014a12.828,12.828,0,0,0-11.96,2.291,2.753,2.753,0,0,0-1.757,5.216l20.48,7.454a2.753,2.753,0,0,0,2.007-5.125,12.844,12.844,0,0,0-3.346-6.476l6.736-5.752a4.979,4.979,0,0,0,1.022.106h.008a4.975,4.975,0,0,0,.493-9.924Zm-6.183-2.649a.814.814,0,1,1,1.382-.859l2.4,3.858a4.946,4.946,0,0,0-1.38.862Zm-1.268,23.765-.468-.17a1.113,1.113,0,0,0-.761,2.091l2.383.867h0l.5.181a.529.529,0,1,1-.362.995l-20.48-7.454a.529.529,0,1,1,.362-.995l.49.178.011,0,12.219,4.448a1.113,1.113,0,1,0,.761-2.091l-10.306-3.751a10.627,10.627,0,0,1,15.651,5.7Zm-2.5-7.026a12.834,12.834,0,0,0-1.441-.91l6.633-5.664a5.014,5.014,0,0,0,1.058,1.236Zm9.456-6.391h0a2.749,2.749,0,0,1,0-5.5h0a2.749,2.749,0,0,1,0,5.5Z" transform="translate(-236.098 0.001)" fill="#fff"/>
        <path id="Path_3" data-name="Path 3" d="M22.522,16.614a12.858,12.858,0,0,0-2.229,5.141A2.753,2.753,0,0,0,22.3,26.88l20.48-7.454a2.753,2.753,0,0,0-1.757-5.216,12.828,12.828,0,0,0-12.375-2.153L19,9.271l2.871-4.618A3.039,3.039,0,1,0,16.71,1.445L13.8,6.128a4.975,4.975,0,0,0,.493,9.924H14.3a4.949,4.949,0,0,0,2.938-.963Zm18.638-.093h0l.5-.181a.526.526,0,0,1,.18-.032.537.537,0,0,1,.224.05.529.529,0,0,1-.043.977l-20.48,7.454a.529.529,0,1,1-.362-.994l.5-.181,0,0ZM29.28,14.193a10.606,10.606,0,0,1,9.2.935l-15.651,5.7A10.612,10.612,0,0,1,25.268,16.8l0,0A10.622,10.622,0,0,1,29.28,14.193ZM19.24,11.657l6.48,1.871a12.8,12.8,0,0,0-1.564,1.242l-5.367-1.55A4.939,4.939,0,0,0,19.24,11.657ZM18.6,2.62a.814.814,0,1,1,1.382.859l-2.4,3.86a4.949,4.949,0,0,0-1.38-.862ZM14.3,13.827h0a2.749,2.749,0,0,1,0-5.5h0a2.749,2.749,0,0,1,0,5.5Z" transform="translate(-9.326 -0.009)" fill="#fff"/>
        <path id="Path_4" data-name="Path 4" d="M399.683,331.928v-2.95a1.113,1.113,0,0,0-2.225,0v2.95a1.113,1.113,0,0,0,2.225,0Z" transform="translate(-339.876 -279.224)" fill="#fff"/>
        <path id="Path_5" data-name="Path 5" d="M119.428,299.463a1.113,1.113,0,0,0-1.113,1.113v2.9a1.113,1.113,0,0,0,2.225,0v-2.9A1.113,1.113,0,0,0,119.428,299.463Z" transform="translate(-102.146 -255.036)" fill="#fff"/>
        <path id="Path_6" data-name="Path 6" d="M114.064,220.437H79.58a3.308,3.308,0,0,1-2.355-.976L66.175,208.413a4.381,4.381,0,0,0-6.134-.1,4.29,4.29,0,0,0-1.3,3.095v14.742a4.143,4.143,0,0,0,1.942,3.522l5.407,3.414a1.113,1.113,0,0,0,1.188-1.882l-5.408-3.414a1.929,1.929,0,0,1-.9-1.64V211.411a2.083,2.083,0,0,1,.633-1.5,2.148,2.148,0,0,1,3.006.077l11.049,11.049a5.52,5.52,0,0,0,3.929,1.627h34.485a2.1,2.1,0,0,1,2.1,2.1V231.2a3.951,3.951,0,0,1-3.947,3.947H100.833v-6.717a1.113,1.113,0,1,0-2.225,0v6.717H75.713a7.568,7.568,0,0,1-4.047-1.171,1.113,1.113,0,0,0-1.188,1.882,9.791,9.791,0,0,0,5.235,1.514h4.806v1.566a2.824,2.824,0,0,0,2.821,2.821h.983v4.081h-4.26a2.944,2.944,0,0,0-2.941,2.941v1.469a2.092,2.092,0,0,0,2.089,2.089H99.991a2.092,2.092,0,0,0,2.089-2.089v-1.469a2.944,2.944,0,0,0-2.941-2.941h-4.26v-4.081h.983a2.824,2.824,0,0,0,2.821-2.821v-1.566h13.532a6.179,6.179,0,0,0,6.172-6.172V224.76A4.328,4.328,0,0,0,114.064,220.437ZM99.139,248.069a.716.716,0,0,1,.716.716v1.333H79.348v-1.333a.716.716,0,0,1,.716-.716Zm-12.591-2.225v-4.081h6.106v4.081Zm9.314-6.306H83.34a.6.6,0,0,1-.6-.6v-1.566H96.458v1.566h0A.6.6,0,0,1,95.862,239.537Z" transform="translate(-51.407 -176.385)" fill="#fff"/>
      </g>
    </g>
  </g>
</svg>
