<svg xmlns="http://www.w3.org/2000/svg" width="51.235" height="51.232" viewBox="0 0 51.235 51.232">
  <g id="Free-Pack_cog" data-name="Free-Pack / cog" transform="translate(-95.164 -117.164)">
    <g id="Group_13" transform="translate(96.753 118.753)">
      <g id="Regular_13">
        <path id="Shape_60" d="M117.671,122.352a4.186,4.186,0,0,0,6.212,0l2.008-2.226a4.185,4.185,0,0,1,7.278,3.019l-.154,2.991a4.19,4.19,0,0,0,4.394,4.394l2.991-.154a4.185,4.185,0,0,1,3.023,7.289l-2.226,2.008a4.186,4.186,0,0,0,0,6.212l2.226,2.008a4.185,4.185,0,0,1-3.019,7.287l-2.991-.154a4.19,4.19,0,0,0-4.394,4.394l.154,2.991a4.185,4.185,0,0,1-7.283,3.012l-2.008-2.226a4.186,4.186,0,0,0-6.212,0l-2.008,2.226a4.185,4.185,0,0,1-7.287-3.019l.154-2.991a4.183,4.183,0,0,0-4.392-4.388l-2.991.154a4.185,4.185,0,0,1-3.012-7.287l2.224-2.008a4.185,4.185,0,0,0,0-6.212l-2.224-2.008a4.185,4.185,0,0,1,3.008-7.276l2.991.154a4.188,4.188,0,0,0,4.4-4.4l-.154-2.991a4.185,4.185,0,0,1,7.287-3.012Z" transform="translate(-96.753 -118.753)" fill="none" stroke="#fff" stroke-linecap="round" stroke-linejoin="round" stroke-width="3" fill-rule="evenodd"/>
        <path id="Oval_13" d="M113.112,144.726a9.613,9.613,0,1,0-9.613-9.613A9.614,9.614,0,0,0,113.112,144.726Z" transform="translate(-89.088 -111.087)" fill="none" stroke="#fff" stroke-linecap="round" stroke-linejoin="round" stroke-width="3" fill-rule="evenodd"/>
      </g>
    </g>
  </g>
</svg>
