<svg xmlns="http://www.w3.org/2000/svg" width="35.983" height="35.983" viewBox="0 0 35.983 35.983">
  <g id="Free-Pack_like-1" data-name="Free-Pack / like-1" transform="translate(-95.999 -262)">
    <g id="Group_43" transform="translate(96.749 262.75)">
      <g id="Regular_43">
        <path id="Shape_205" d="M101.249,294.937a9.125,9.125,0,0,1,2.388.351l5.569,1.591a9.194,9.194,0,0,0,2.524.354h7.487a9.2,9.2,0,0,0,9.149-8.276l.46-7.816a6.9,6.9,0,0,0-5.211-7.041l-2.23-.487a2.3,2.3,0,0,1-1.741-2.231V266.2a3.448,3.448,0,0,0-6.9,0v2.382a11.494,11.494,0,0,1-11.494,11.494Z" transform="translate(-94.352 -262.75)" fill="none" stroke="#fff" stroke-linecap="round" stroke-linejoin="round" stroke-width="1.5" fill-rule="evenodd"/>
        <path id="Rectangle-path_12" d="M96.749,271.75h6.9v20.69h-6.9Z" transform="translate(-96.749 -257.957)" fill="none" stroke="#fff" stroke-linecap="round" stroke-linejoin="round" stroke-width="1.5" fill-rule="evenodd"/>
      </g>
    </g>
  </g>
</svg>
