<svg xmlns="http://www.w3.org/2000/svg" width="30.514" height="34.978" viewBox="0 0 30.514 34.978">
  <g id="Free-Pack_shop-cashier-woman" data-name="Free-Pack / shop-cashier-woman" transform="translate(-289.499 -406)">
    <g id="Group_77" transform="translate(290.249 406.75)">
      <g id="Regular_77">
        <path id="Shape_383" d="M313.336,423.962a10.11,10.11,0,0,0-5.539-6.745l-4.5,5.629-4.5-5.629a10.105,10.105,0,0,0-5.541,6.745" transform="translate(-288.785 -401.643)" fill="none" stroke="#fff" stroke-linecap="round" stroke-linejoin="round" stroke-width="1.5"/>
        <path id="Shape_384" d="M296.3,410.97v1.488a8.781,8.781,0,0,1-1.28,4.87" transform="translate(-287.923 -404.691)" fill="none" stroke="#fff" stroke-linecap="round" stroke-linejoin="round" stroke-width="1.5"/>
        <path id="Shape_385" d="M304.125,410.97v1.488a8.8,8.8,0,0,0,1.278,4.87" transform="translate(-283.482 -404.691)" fill="none" stroke="#fff" stroke-linecap="round" stroke-linejoin="round" stroke-width="1.5"/>
        <path id="Shape_386" d="M295.887,412.116a8.157,8.157,0,0,0,6.12-2.827,8.161,8.161,0,0,0,6.118,2.827" transform="translate(-287.498 -405.511)" fill="none" stroke="#fff" stroke-linecap="round" stroke-linejoin="round" stroke-width="1.5"/>
        <path id="Shape_387" d="M308.149,412.864a6.138,6.138,0,1,1-6.136-6.114,6.138,6.138,0,0,1,6.136,6.114Z" transform="translate(-287.505 -406.75)" fill="none" stroke="#fff" stroke-linecap="round" stroke-linejoin="round" stroke-width="1.5" fill-rule="evenodd"/>
        <path id="Shape_388" d="M319.263,431.446v-4.464a2.233,2.233,0,0,0-2.232-2.232h-24.55a2.233,2.233,0,0,0-2.232,2.232v4.464" transform="translate(-290.249 -397.968)" fill="none" stroke="#fff" stroke-linecap="round" stroke-linejoin="round" stroke-width="1.5"/>
      </g>
    </g>
  </g>
</svg>
