<svg xmlns="http://www.w3.org/2000/svg" width="51.703" height="27.685" viewBox="0 0 51.703 27.685">
  <g id="Group_412" data-name="Group 412" transform="translate(-107.929 -1714)">
    <g id="Free-Pack_shop-cashier-man" data-name="Free-Pack / shop-cashier-man" transform="translate(-123 1308)">
      <g id="Group_76" transform="translate(245.249 406.75)">
        <g id="Regular_76">
          <path id="Shape_379" d="M248.444,408.781a11.9,11.9,0,0,0,13.26,2.665" transform="translate(-242.901 -405.257)" fill="none" stroke="#fff" stroke-linecap="round" stroke-linejoin="round" stroke-width="1.5"/>
          <path id="Oval_29" d="M255.03,421.063a7.156,7.156,0,1,0-7.156-7.156A7.157,7.157,0,0,0,255.03,421.063Z" transform="translate(-243.32 -406.75)" fill="none" stroke="#fff" stroke-linecap="round" stroke-linejoin="round" stroke-width="1.5" fill-rule="evenodd"/>
          <path id="Shape_380" d="M268.67,425.609a12.082,12.082,0,0,0-23.421,0" transform="translate(-245.249 -399.586)" fill="none" stroke="#fff" stroke-linecap="round" stroke-linejoin="round" stroke-width="1.5"/>
          <path id="Shape_382" d="M252,416.5v9.108" transform="translate(-240.289 -399.585)" fill="none" stroke="#fff" stroke-linecap="round" stroke-linejoin="round" stroke-width="1.5"/>
        </g>
      </g>
    </g>
    <g id="Free-Pack_shop-cashier-man-2" data-name="Free-Pack / shop-cashier-man" transform="translate(-105 1313.499)">
      <g id="Group_76-2" data-name="Group_76" transform="translate(245.249 406.75)">
        <g id="Regular_76-2" data-name="Regular_76">
          <path id="Shape_379-2" data-name="Shape_379" d="M248.444,408.781a9.384,9.384,0,0,0,10.458,2.1" transform="translate(-244.072 -406.002)" fill="none" stroke="#fff" stroke-linecap="round" stroke-linejoin="round" stroke-width="1.5"/>
          <path id="Oval_29-2" data-name="Oval_29" stroke="#fff" d="M253.518,418.039a5.644,5.644,0,1,0-5.644-5.644A5.645,5.645,0,0,0,253.518,418.039Z" fill="none" transform="translate(-244.282 -406.75)" stroke-linecap="round" stroke-linejoin="round" stroke-width="1.5" fill-rule="evenodd"/>
          <path id="Shape_380-2" data-name="Shape_380" d="M263.721,423.684a9.53,9.53,0,0,0-9.236-7.185,9.913,9.913,0,0,0-3.588.7" transform="translate(-245.249 -403.159)" fill="none" stroke="#fff" stroke-linecap="round" stroke-linejoin="round" stroke-width="1.5"/>
          <path id="Shape_382-2" data-name="Shape_382" d="M252,416.5v7.184" transform="translate(-242.763 -403.159)" fill="none" stroke="#fff" stroke-linecap="round" stroke-linejoin="round" stroke-width="1.5"/>
        </g>
      </g>
    </g>
    <g id="Free-Pack_shop-cashier-man-3" data-name="Free-Pack / shop-cashier-man" transform="translate(108.841 1720.249)">
      <g id="Group_76-3" data-name="Group_76" transform="translate(0 0)">
        <g id="Regular_76-3" data-name="Regular_76" transform="translate(0)">
          <path id="Shape_379-3" data-name="Shape_379" d="M248.444,408.781a9.384,9.384,0,0,0,10.458,2.1" transform="translate(-244.072 -406.002)" fill="none" stroke="#fff" stroke-linecap="round" stroke-linejoin="round" stroke-width="1.5"/>
          <path id="Oval_29-3" data-name="Oval_29" stroke="#fff" d="M253.518,418.039a5.644,5.644,0,1,0-5.644-5.644A5.645,5.645,0,0,0,253.518,418.039Z" fill="none" transform="translate(-244.282 -406.75)" stroke-linecap="round" stroke-linejoin="round" stroke-width="1.5" fill-rule="evenodd"/>
          <path id="Shape_380-3" data-name="Shape_380" d="M250.9,423.684a9.53,9.53,0,0,1,9.236-7.185,9.913,9.913,0,0,1,3.588.7" transform="translate(-250.897 -403.159)" fill="none" stroke="#fff" stroke-linecap="round" stroke-linejoin="round" stroke-width="1.5"/>
          <path id="Shape_382-3" data-name="Shape_382" d="M252,416.5v7.184" transform="translate(-242.763 -403.159)" fill="none" stroke="#fff" stroke-linecap="round" stroke-linejoin="round" stroke-width="1.5"/>
        </g>
      </g>
    </g>
  </g>
</svg>
