<svg xmlns="http://www.w3.org/2000/svg" width="51" height="51" viewBox="0 0 51 51">
  <g id="sentiment_satisfied" transform="translate(-134 -4142)">
    <rect id="Path" width="51" height="51" transform="translate(134 4142)" fill="rgba(0,0,0,0)"/>
    <path id="Icon" d="M21,42A21,21,0,1,1,42,21,21.024,21.024,0,0,1,21,42Zm.02-37.8A16.8,16.8,0,1,0,37.821,21,16.82,16.82,0,0,0,21.02,4.2Zm0,28.35A11.539,11.539,0,0,1,10.268,25.2h3.507a8.349,8.349,0,0,0,14.491,0h3.507a11.542,11.542,0,0,1-10.753,7.35ZM28.372,18.9a3.15,3.15,0,1,1,3.149-3.151A3.155,3.155,0,0,1,28.372,18.9Zm-14.7,0a3.15,3.15,0,1,1,3.151-3.151A3.154,3.154,0,0,1,13.67,18.9Z" transform="translate(138 4146)" fill="#fff"/>
  </g>
</svg>
