<svg id="Group_2950" data-name="Group 2950" xmlns="http://www.w3.org/2000/svg" width="80" height="80" viewBox="0 0 80 80">
  <circle id="Ellipse_4" data-name="Ellipse 4" cx="40" cy="40" r="40" fill="#cbd4c2"/>
  <path id="Star" d="M15.527,2.125l-.876,1.994-3.143,7.041-7.676.816-2.176.242,1.632,1.451L9,18.836,7.4,26.391l-.453,2.115,1.9-1.088,6.678-3.868,6.678,3.868,1.9,1.088-.453-2.115-1.6-7.555,5.711-5.167L29.4,12.218l-2.176-.242-7.676-.816L16.4,4.119Zm0,4.744L18,12.46l.242.514.544.06,6.074.635-4.533,4.08-.423.393.121.544L21.3,24.638,16.01,21.616l-.484-.3-.484.3L9.755,24.638l1.269-5.953.121-.544-.423-.393-4.533-4.08,6.074-.635.544-.06.242-.514Z" transform="translate(24.544 24.875)"/>
</svg>
