<svg xmlns="http://www.w3.org/2000/svg" width="80" height="80" viewBox="0 0 80 80">
  <g id="Group_406" data-name="Group 406" transform="translate(0 -0.011)">
    <circle id="Ellipse_4" data-name="Ellipse 4" cx="40" cy="40" r="40" transform="translate(0 0.011)" fill="#c3c66f"/>
    <g id="Free-Pack_like-1" data-name="Free-Pack / like-1" transform="translate(-71.524 -237.512)">
      <g id="Group_43" transform="translate(96.749 262.75)">
        <g id="Regular_43">
          <path id="Shape_205" d="M101.249,287.671a7.065,7.065,0,0,1,1.849.272l4.312,1.232a7.12,7.12,0,0,0,1.954.274h5.8a7.12,7.12,0,0,0,7.084-6.408l.356-6.052a5.341,5.341,0,0,0-4.034-5.451l-1.727-.377a1.78,1.78,0,0,1-1.348-1.728V265.42a2.67,2.67,0,0,0-5.34,0v1.844a8.9,8.9,0,0,1-8.9,8.9Z" transform="translate(-95.909 -262.75)" fill="none" stroke="#000" stroke-linecap="round" stroke-linejoin="round" stroke-width="1.5" fill-rule="evenodd"/>
          <path id="Rectangle-path_12" d="M96.749,271.75h5.34v16.019h-5.34Z" transform="translate(-96.749 -261.071)" fill="none" stroke="#000" stroke-linecap="round" stroke-linejoin="round" stroke-width="1.5" fill-rule="evenodd"/>
        </g>
      </g>
    </g>
  </g>
</svg>
