<svg xmlns="http://www.w3.org/2000/svg" width="80" height="80" viewBox="0 0 80 80">
  <g id="Group_406" data-name="Group 406" transform="translate(0 -0.011)">
    <circle id="Ellipse_4" data-name="Ellipse 4" cx="40" cy="40" r="40" transform="translate(0 0.011)" fill="#c3c66f"/>
    <path id="Path_10" data-name="Path 10" d="M664.661,433.409h.182L662.2,430.76a.726.726,0,0,1-.215-.519V427.78a7.741,7.741,0,0,1,4.3-6.966.731.731,0,0,1,1.057.655v12.113a1.708,1.708,0,0,1,.973,1.535V465.33a1.707,1.707,0,0,1-1.7,1.708h-1.951a1.711,1.711,0,0,1-1.708-1.708V435.116A1.711,1.711,0,0,1,664.661,433.409Zm0,1.464a.242.242,0,0,0-.243.243v3.167h2.438v-3.167a.245.245,0,0,0-.243-.243Zm-1.221-4.936,2.438,2.438v-9.586a6.291,6.291,0,0,0-2.438,4.992Zm3.415,9.806h-2.437V465.33a.242.242,0,0,0,.243.243h1.951a.245.245,0,0,0,.243-.243Zm17.353,15.584,2.625-28.464a5.563,5.563,0,0,0-2.5-4.786.731.731,0,0,1,.809-1.216,7.034,7.034,0,0,1,3.149,6.091L685.466,457.6a.684.684,0,0,1-.094.29v6.466a2.681,2.681,0,1,1-5.362,0v-6.789L677.19,427a7.059,7.059,0,0,1,3.149-6.138.731.731,0,0,1,.809,1.216,5.587,5.587,0,0,0-2.5,4.833l2.62,28.361a2.653,2.653,0,0,1,2.938.056Zm-.3,4.58a2.585,2.585,0,0,1-2.433,0v4.449a1.216,1.216,0,0,0,2.433,0Zm-1.216-3.593a1.266,1.266,0,1,0,.95.487A1.2,1.2,0,0,0,682.692,456.315Z" transform="translate(-635.148 -402.794)" fill="#505050" fill-rule="evenodd"/>
  </g>
</svg>
