<svg xmlns="http://www.w3.org/2000/svg" width="80" height="80" viewBox="0 0 80 80">
  <g id="Group_408" data-name="Group 408" transform="translate(0 -0.034)">
    <circle id="Ellipse_4" data-name="Ellipse 4" cx="40" cy="40" r="40" transform="translate(0 0.034)" fill="#cabba3"/>
    <g id="Group_444" data-name="Group 444" transform="translate(-113 -3060.966)">
      <g id="Rectangle_92" data-name="Rectangle 92" transform="translate(122.372 3081.256) rotate(17)" fill="none" stroke="#50514f" stroke-width="1">
        <path d="M3.3,0h37.2a0,0,0,0,1,0,0V6.592a0,0,0,0,1,0,0H3.3A3.3,3.3,0,0,1,0,3.3v0A3.3,3.3,0,0,1,3.3,0Z" stroke="none"/>
        <path d="M3.3.5h36.3a.4.4,0,0,1,.4.4V5.692a.4.4,0,0,1-.4.4H3.3A2.8,2.8,0,0,1,.5,3.3v0A2.8,2.8,0,0,1,3.3.5Z" fill="none"/>
      </g>
      <g id="Rectangle_93" data-name="Rectangle 93" transform="translate(161.021 3090.118) rotate(17)" fill="none" stroke="#50514f" stroke-width="1">
        <rect width="20.717" height="14.125" stroke="none"/>
        <rect x="0.5" y="0.5" width="19.717" height="13.125" fill="none"/>
      </g>
      <g id="Rectangle_94" data-name="Rectangle 94" transform="translate(167.072 3105.754) rotate(17)" fill="none" stroke="#50514f" stroke-width="1">
        <rect width="10.359" height="6.592" stroke="none"/>
        <rect x="0.5" y="0.5" width="9.359" height="5.592" fill="none"/>
      </g>
      <g id="Path_87" data-name="Path 87" transform="translate(166.242 3110.239) rotate(35)" fill="none">
        <path d="M.116,1.148,3.608,0l.159,13.891H0Z" stroke="none"/>
        <path d="M 2.623694181442261 1.376361846923828 L 1.109184265136719 1.874378204345703 L 1.009120941162109 12.89136409759521 L 2.755287170410156 12.89136409759521 L 2.623694181442261 1.376361846923828 M 3.608025789260864 4.76837158203125e-06 L 3.766775846481323 13.89136409759521 L -4.291534423828125e-06 13.89136409759521 L 0.1157357692718506 1.148374557495117 L 3.608025789260864 4.76837158203125e-06 Z" stroke="none" fill="#50514f"/>
      </g>
      <g id="Path_86" data-name="Path 86" transform="translate(170.407 3112.842) rotate(7)" fill="none">
        <path d="M0,0,3.815.667V13.851H.048Z" stroke="none"/>
        <path d="M 1.004133224487305 1.190736770629883 L 1.044583082199097 12.85069561004639 L 2.814820289611816 12.85069561004639 L 2.814820289611816 1.507325172424316 L 1.004133224487305 1.190736770629883 M 2.384185791015625e-07 -3.814697265625e-06 L 3.814820289611816 0.6669960021972656 L 3.814820289611816 13.85069561004639 L 0.0480501651763916 13.85069561004639 L 2.384185791015625e-07 -3.814697265625e-06 Z" stroke="none" fill="#50514f"/>
      </g>
      <g id="Path_84" data-name="Path 84" transform="translate(163.829 3118.61) rotate(35)" fill="none">
        <path d="M2.825,0A2.825,2.825,0,1,1,0,2.825,2.825,2.825,0,0,1,2.825,0Z" stroke="none"/>
        <path d="M 2.825078725814819 0.9999985694885254 C 1.818728685379028 0.9999985694885254 0.9999985694885254 1.818728685379028 0.9999985694885254 2.825078725814819 C 0.9999985694885254 3.83142876625061 1.818728685379028 4.650158882141113 2.825078725814819 4.650158882141113 C 3.83142876625061 4.650158882141113 4.650158882141113 3.83142876625061 4.650158882141113 2.825078725814819 C 4.650158882141113 1.818728685379028 3.83142876625061 0.9999985694885254 2.825078725814819 0.9999985694885254 M 2.825078725814819 -1.430511474609375e-06 C 4.385328769683838 -1.430511474609375e-06 5.650158882141113 1.264828681945801 5.650158882141113 2.825078725814819 C 5.650158882141113 4.385328769683838 4.385328769683838 5.650158882141113 2.825078725814819 5.650158882141113 C 1.264828681945801 5.650158882141113 -1.430511474609375e-06 4.385328769683838 -1.430511474609375e-06 2.825078725814819 C -1.430511474609375e-06 1.264828681945801 1.264828681945801 -1.430511474609375e-06 2.825078725814819 -1.430511474609375e-06 Z" stroke="none" fill="#50514f"/>
      </g>
      <g id="Path_85" data-name="Path 85" transform="translate(172.259 3121.332) rotate(7)" fill="none">
        <path d="M2.825,0A2.825,2.825,0,1,1,0,2.825,2.825,2.825,0,0,1,2.825,0Z" stroke="none"/>
        <path d="M 2.825078725814819 0.9999985694885254 C 1.818728685379028 0.9999985694885254 0.9999985694885254 1.818728685379028 0.9999985694885254 2.825078725814819 C 0.9999985694885254 3.83142876625061 1.818728685379028 4.650158882141113 2.825078725814819 4.650158882141113 C 3.83142876625061 4.650158882141113 4.650158882141113 3.83142876625061 4.650158882141113 2.825078725814819 C 4.650158882141113 1.818728685379028 3.83142876625061 0.9999985694885254 2.825078725814819 0.9999985694885254 M 2.825078725814819 -1.430511474609375e-06 C 4.385328769683838 -1.430511474609375e-06 5.650158882141113 1.264828681945801 5.650158882141113 2.825078725814819 C 5.650158882141113 4.385328769683838 4.385328769683838 5.650158882141113 2.825078725814819 5.650158882141113 C 1.264828681945801 5.650158882141113 -1.430511474609375e-06 4.385328769683838 -1.430511474609375e-06 2.825078725814819 C -1.430511474609375e-06 1.264828681945801 1.264828681945801 -1.430511474609375e-06 2.825078725814819 -1.430511474609375e-06 Z" stroke="none" fill="#50514f"/>
      </g>
    </g>
  </g>
</svg>
