<svg xmlns="http://www.w3.org/2000/svg" width="80" height="80" viewBox="0 0 80 80">
  <g id="Group_409" data-name="Group 409" transform="translate(0 -0.046)">
    <circle id="Ellipse_4" data-name="Ellipse 4" cx="40" cy="40" r="40" transform="translate(0 0.046)" fill="#c7ccc8"/>
    <path id="Path_11" data-name="Path 11" d="M477.985,464.186c-3.486,0-6-2.463-7.073-6.928l-2.077-9.2-2.072,9.189c-1.137,4.544-3.583,6.937-7.073,6.937a7.088,7.088,0,1,1,0-14.177,7,7,0,0,1,3.442.9l3.214-13.874-.083-.369a3.847,3.847,0,0,1-1-4.421l-.755-3.35c-.36-2.046,1.629-7.143,1.857-7.718a.707.707,0,0,1,.689-.435.687.687,0,0,1,.619.531l1.159,5.009L470,421.27a.683.683,0,0,1,1.3-.1c.228.575,2.222,5.672,1.87,7.688l-.764,3.381a3.841,3.841,0,0,1-1,4.421l-.079.369,3.214,13.874a7,7,0,0,1,3.442-.9,7.088,7.088,0,0,1,0,14.177Zm-7.174-40.348-1.269,5.479.154.672a3.819,3.819,0,0,1,1.629.821l.5-2.217A14.354,14.354,0,0,0,470.811,423.839Zm-4.465,6.972a3.886,3.886,0,0,1,1.633-.821c.1-.022.2-.031.3-.048l-.145-.623-1.269-5.479a14.271,14.271,0,0,0-1.01,4.786Zm-.918,26.118,2.7-11.986-1.093-4.838-2.8,12.069a.686.686,0,0,1-1.084.386,5.662,5.662,0,0,0-3.468-1.181,5.716,5.716,0,1,0,0,11.433C462.522,462.812,464.454,460.832,465.429,456.929Zm18.273.167a5.711,5.711,0,0,0-9.189-4.535.659.659,0,0,1-.645.1.683.683,0,0,1-.439-.487l-2.8-12.069-.356-1.537-.255-1.111-.211.066a3.542,3.542,0,0,1-1.945,0l.97,4.307.351,1.559.356,1.554,2.709,12c.641,2.669,2.16,5.866,5.734,5.866A5.722,5.722,0,0,0,483.7,457.1Zm-17.373-23.265a2.471,2.471,0,0,0,.22.97,2.379,2.379,0,0,0,.224.4,2.446,2.446,0,0,0,.566.58c.053.039.1.079.158.114a2.449,2.449,0,0,0,.47.228,2.36,2.36,0,0,0,1.743,0,2.581,2.581,0,0,0,.47-.228c.053-.035.105-.075.154-.114a2.466,2.466,0,0,0,.571-.58,2.383,2.383,0,0,0,.224-.4,2.549,2.549,0,0,0,.219-.97c0-.018,0-.04,0-.057a2.446,2.446,0,0,0-.4-1.339,2.572,2.572,0,0,0-1.66-1.133c-.07-.009-.14-.013-.211-.022s-.162-.022-.25-.022-.167.018-.246.022-.145.013-.211.022a2.446,2.446,0,0,0-.773.29,2.521,2.521,0,0,0-1.286,2.182C466.32,433.792,466.329,433.814,466.329,433.831Z" transform="translate(-429 -404.092)" fill="#505050" fill-rule="evenodd"/>
  </g>
</svg>
