<svg xmlns="http://www.w3.org/2000/svg" width="19.997" height="15.993" viewBox="0 0 19.997 15.993">
  <path id="twitter" d="M466.3,815.005a11.5,11.5,0,0,0,11.674-11.49c0-.175,0-.349-.012-.522a8.281,8.281,0,0,0,2.047-2.09,8.3,8.3,0,0,1-2.357.635,4.065,4.065,0,0,0,1.8-2.234,8.3,8.3,0,0,1-2.605.98,4.153,4.153,0,0,0-5.8-.175,4,4,0,0,0-1.187,3.858,11.71,11.71,0,0,1-8.456-4.219,4,4,0,0,0,1.27,5.391,4.122,4.122,0,0,1-1.862-.505v.051a4.056,4.056,0,0,0,3.292,3.958,4.156,4.156,0,0,1-1.853.069,4.1,4.1,0,0,0,3.833,2.8,8.317,8.317,0,0,1-5.1,1.732,8.466,8.466,0,0,1-.977-.058A11.751,11.751,0,0,0,466.3,815" transform="translate(-460.012 -799.012)" fill="#fff"/>
</svg>
